<svg width="155" height="206" viewBox="0 0 155 206" fill="none" xmlns="http://www.w3.org/2000/svg">
<path fill-rule="evenodd" clip-rule="evenodd" d="M91.8509 23.8737C90.9783 20.5564 90.9781 16.8432 92.6763 13.2417C97.5695 2.86499 109.232 9.34328 109.534 15.4933C109.836 21.6433 104.093 35.1 100.541 35.0117C99.1251 34.9765 96.8093 33.1574 94.8472 30.3247L90.8447 45.115L80.6942 41.772L91.8509 23.8737Z" fill="#B28B67"/>
<path fill-rule="evenodd" clip-rule="evenodd" d="M108.49 11.7048C108.325 11.4668 107.979 10.9662 107.784 10.7618C107.738 10.7129 107.469 10.2394 107.457 10.2401C107.101 10.2606 106.032 10.4167 105.8 10.7796C105.777 10.8051 105.754 10.8289 105.733 10.8493C105.499 11.0767 105.273 11.3143 105.051 11.5569C104.563 12.0896 104.097 12.6609 103.643 13.2302C102.758 14.3389 101.912 15.4933 101.092 16.6596C100.258 17.8468 99.4653 19.0648 98.6445 20.2625C97.4635 21.986 96.18 23.6238 95.0023 25.3475C94.2502 26.4481 93.6141 27.6028 93.1937 28.8522C93.1885 28.8672 93.1831 28.8818 93.1782 28.8972C93.1762 28.9034 93.1744 28.9097 93.1724 28.916C93.109 29.1085 93.0505 29.3031 92.9977 29.5002C92.953 29.6689 92.9081 29.8382 92.8645 30.0079C93.6247 29.2194 94.3298 28.3067 95.0325 27.4516C95.1013 27.3678 95.1689 27.2829 95.236 27.1975C95.4165 27.0366 95.5984 26.8778 95.7812 26.72C96.934 25.7254 98.0875 24.7361 99.2218 23.7105C101.262 21.8659 103.31 19.9708 105.49 18.378C106.134 17.9077 106.783 17.4497 107.424 16.9728C107.788 16.7014 108.15 16.4223 108.506 16.1345C108.761 15.9288 109.78 15.2548 109.756 14.6399C109.744 14.3252 108.92 12.3222 108.49 11.7048Z" fill="#2C2C2C"/>
<path fill-rule="evenodd" clip-rule="evenodd" d="M107.407 9.80888C107.598 9.97269 107.711 9.38372 107.569 9.11701C106.913 7.88142 103.145 6.27551 99.4186 5.98569C96.9221 5.79153 93.7233 6.29686 91.1945 7.46575C88.9148 8.51952 86.7588 10.7001 85.1839 12.9736C83.5302 15.3608 82.3486 18.0274 81.616 20.7912C81.4551 21.3983 81.3909 22.0061 81.2496 22.6056C81.0906 23.2808 80.8923 23.9161 80.8189 24.5996C80.774 25.0181 80.8089 25.4542 80.747 25.8696C80.6764 26.3436 80.4473 26.7284 80.189 27.1494C79.7681 27.8355 79.3173 28.5102 78.8129 29.1319C78.0554 30.0655 77.253 30.9094 76.56 31.9087C75.6378 33.2384 72.3212 37.4618 72.844 39.0809L92.6267 45.5679C92.7699 43.8171 92.0294 41.4584 92.4132 39.6598C92.6394 38.6002 93.4378 36.3862 93.4512 36.3006C94.4558 32.5642 94.278 30.5642 93.9842 29.7632C93.6904 28.9622 93.0415 28.5328 93.2221 27.9808C93.9693 25.6978 95.5932 23.8082 96.9919 21.9075C98.659 19.6423 100.174 17.2573 101.858 15.0072C102.604 14.0108 106.414 8.95835 107.407 9.80888Z" fill="#8991DC"/>
<path fill-rule="evenodd" clip-rule="evenodd" d="M99.0608 10.1471C97.2296 12.6449 96.4858 14.0554 95.1432 17.8515L94.7835 17.7326C95.5274 13.9773 97.4583 10.8488 98.6088 9.99768L99.0608 10.1471ZM86.3905 13.9668C86.1921 18.3235 85.891 20.8354 88.4403 25.2568L88.0483 25.4024C85.2737 21.6218 85.3792 18.2411 86.0379 14.0345L86.3905 13.9668ZM93.5969 11.8489C91.9964 17.5968 90.9089 20.8227 91.7123 27.9544L91.3187 27.9646C90.1069 21.5856 91.306 17.1026 93.2636 11.7732L93.5969 11.8489ZM83.428 27.1329L83.8912 26.8088C87.3132 29.6178 85.6402 32.5285 89.4568 37.2979L88.9132 37.4598C85.3472 33.843 86.1621 28.8836 83.428 27.1329Z" fill="black" fill-opacity="0.2"/>
<path fill-rule="evenodd" clip-rule="evenodd" d="M65.3029 84.896L102.538 147.727L130.453 200.845H136.466L89.6933 84.896L65.3029 84.896Z" fill="#997659"/>
<path fill-rule="evenodd" clip-rule="evenodd" d="M126.777 198.393C126.216 199.903 125.936 201.033 125.936 201.783C125.936 202.695 126.087 204.026 126.388 205.776C127.436 205.776 136.857 205.776 154.651 205.776C155.385 203.325 154.961 202.002 153.379 201.807C151.796 201.611 150.482 201.435 149.435 201.277L136.299 195.367C136.046 195.253 135.75 195.367 135.637 195.623C135.635 195.627 135.633 195.631 135.632 195.636L134.787 197.703C133.322 198.393 132.132 198.738 131.216 198.738C130.472 198.738 129.444 198.435 128.133 197.828C127.63 197.595 127.035 197.818 126.804 198.326C126.795 198.348 126.785 198.37 126.777 198.393Z" fill="#E4E4E4"/>
<path fill-rule="evenodd" clip-rule="evenodd" d="M122.701 192.339L134.296 188.799C129.216 173.47 122.989 156.601 115.616 138.192C108.243 119.783 100.325 102.017 91.8612 84.896H59.1113C68.521 106.554 78.4966 126.233 89.038 143.933C99.5794 161.632 110.8 177.768 122.701 192.339Z" fill="#DB2721"/>
<path fill-rule="evenodd" clip-rule="evenodd" d="M62.8558 84.896C59.3415 106.975 52.5634 135.184 51.9238 136.054C51.4973 136.635 36.1451 141.827 5.8672 151.631L7.16603 156.983C43.2724 151.725 62.2973 147.645 64.2409 144.745C67.1563 140.393 81.7132 106.019 87.3513 84.896H62.8558Z" fill="#B28B67"/>
<path fill-rule="evenodd" clip-rule="evenodd" d="M16.5104 147.005L18.7982 155.624C45.8036 158.015 62.3504 156.288 68.4386 150.442C74.5269 144.597 81.4656 122.748 89.255 84.896H58.026C53.0908 115.892 50.3318 132.04 49.7488 133.341C49.1658 134.643 38.0863 139.197 16.5104 147.005Z" fill="#FF4133"/>
<path fill-rule="evenodd" clip-rule="evenodd" d="M6.78395 149.305C5.31744 148.949 4.24831 148.824 3.57658 148.928C2.75959 149.054 1.59787 149.39 0.0914195 149.935C0.303591 150.991 2.21041 160.474 5.81189 178.386C8.15582 178.786 9.25517 178.176 9.10993 176.556C8.96469 174.936 8.85668 173.588 8.78589 172.513L11.4218 158.47C11.4726 158.2 11.3099 157.918 11.0586 157.84C11.0543 157.838 11.05 157.837 11.0456 157.836L9.02283 157.272C8.10839 155.893 7.55848 154.743 7.37311 153.821C7.2225 153.072 7.28621 151.995 7.56426 150.591C7.67096 150.053 7.35083 149.485 6.84924 149.323C6.82762 149.316 6.80584 149.31 6.78395 149.305Z" fill="#E4E4E4"/>
<path fill-rule="evenodd" clip-rule="evenodd" d="M109.047 82.3498L119.372 99.3947C122.936 101.924 125.732 104.534 127.761 107.226C128.158 108.085 128.445 109.654 125.894 108.563C123.343 107.472 120.602 106.455 119.87 107.346C119.138 108.238 120.291 109.968 119.059 111.091C118.238 111.839 116.755 108.802 114.611 101.979L102.468 90.3604L109.047 82.3498ZM45.8103 60.7467L53.8253 64.149C38.3005 83.8351 30.0246 94.2304 28.9974 95.3349C26.6863 97.8199 26.9463 103.186 26.8447 105.968C23.1064 106.241 25.9404 100.624 21.1906 101.046C16.8553 101.432 12.7052 103.68 9.87518 99.1267C9.52723 98.5669 9.55361 97.0181 11.3285 96.5417C15.7505 95.3547 22.469 92.8501 23.7569 91.6394C25.5133 89.9884 32.8644 79.6909 45.8103 60.7467Z" fill="#B28B67"/>
<path fill-rule="evenodd" clip-rule="evenodd" d="M91.4588 36.2513L97.0802 35.6254C98.2732 55.9021 103.028 76.3698 115.513 95.655L108.86 102.596C96.741 89.4123 84.7706 78.5686 83.3903 62.749C82.9271 57.4396 89.5339 42.0153 91.4588 36.2513Z" fill="#C5CFD6"/>
<path fill-rule="evenodd" clip-rule="evenodd" d="M57.3551 83.7818C71.1498 88.8765 82.4024 91.5704 91.113 91.8636C92.1922 91.8999 92.916 90.0598 92.8267 88.672C91.4357 67.0603 91.5942 48.5313 95.7297 34.7416C94.1572 35.1685 91.7649 34.7161 88.5528 33.3846C75.2355 45.4274 66.1831 60.736 57.3551 83.7818Z" fill="#323337"/>
<path fill-rule="evenodd" clip-rule="evenodd" d="M86.3402 30.266L90.0818 31.1654C89.2579 37.0501 69.0508 114.563 70.0246 141.742L24.1255 130.709C31.9995 107.918 48.1123 82.1397 62.9787 60.9005C53.8189 66.3371 44.0838 76.9396 33.7735 92.7081L25.9062 88.197C41.4116 59.2236 61.2525 39.9578 85.429 30.3997C85.505 30.2998 85.5806 30.2004 85.6559 30.1015L85.987 30.1811C86.1347 30.1238 86.2827 30.0668 86.4307 30.0102L86.3402 30.266Z" fill="#DDE3E9"/>
</svg>
